<?xml version="1.0" encoding="UTF-8" standalone="no"?><!DOCTYPE svg PUBLIC "-//W3C//DTD SVG 1.1//EN" "http://www.w3.org/Graphics/SVG/1.1/DTD/svg11.dtd"><svg width="100%" height="100%" viewBox="0 0 516 516" version="1.1" xmlns="http://www.w3.org/2000/svg" xmlns:xlink="http://www.w3.org/1999/xlink" xml:space="preserve" xmlns:serif="http://www.serif.com/" style="fill-rule:evenodd;clip-rule:evenodd;stroke-linecap:round;stroke-linejoin:round;stroke-miterlimit:1.5;"><rect id="Artboard1" x="0" y="0" width="515.923" height="515.995" style="fill:none;"/><circle cx="258" cy="258" r="250" style="fill:none;stroke:#000;stroke-width:5px;"/><path d="M258,28c-126.887,0 -230,103.113 -230,230c0,126.887 103.113,230 230,230c126.887,0 230,-103.113 230,-230c0,-126.887 -103.113,-230 -230,-230Zm0,20c116.073,0 210,93.927 210,210c0,0.714 -0.052,1.417 -0.059,2.129c-6.396,-0.59 -13.786,-1.151 -23.183,-1.484c-13.287,-0.472 -30.035,-0.335 -49.024,0.605c0.705,-4.903 1.198,-9.876 1.211,-14.98c0.969,-18.727 -5.32,-36.245 -15.547,-51.719c2.471,-8.537 5.369,-19.399 6.094,-31.719c0.826,-14.043 -0.386,-29.614 -11.66,-40.137l-2.891,-2.695l-3.945,0c-26.831,0 -45.196,11.232 -56.426,20.137c-16.215,-6.277 -34.448,-10.137 -54.57,-10.137c-20.236,0 -38.645,3.914 -55.527,10.176c-11.224,-8.909 -29.605,-20.176 -56.465,-20.176l-3.926,0l-2.891,2.676c-10.981,10.197 -11.993,25.342 -11.308,39.316c0.604,12.323 3.334,23.529 5.762,32.481c-10.4,15.776 -16.641,33.747 -16.641,51.523c0,5.116 0.476,10.105 1.172,15.02c-18.058,-0.838 -34.155,-0.999 -46.934,-0.547c-9.397,0.332 -16.788,0.888 -23.183,1.484c-0.006,-0.653 -0.059,-1.298 -0.059,-1.953c0,-116.073 93.927,-210 210,-210Zm-106.035,91.309c20.176,1.911 35.355,10.921 42.383,17.168l4.687,4.14l5.781,-2.363c15.815,-6.512 33.454,-10.254 53.184,-10.254c19.73,0 37.374,3.761 51.992,10.156l5.86,2.578l4.785,-4.257c7.03,-6.249 22.235,-15.261 42.422,-17.168c2.684,4.449 5.016,10.778 4.453,20.351c-0.674,11.457 -3.739,23.937 -6.055,31.348l-1.504,4.824l2.988,4.082c9.895,13.493 14.94,28.095 14.082,43.535l-0.019,0.274l0,0.273c0,24.955 -8.986,44.927 -28.125,59.727c-19.139,14.799 -49.352,24.277 -91.875,24.277c-42.523,0 -72.756,-9.478 -91.895,-24.277c-19.139,-14.8 -28.105,-34.772 -28.105,-59.727c0,-14.647 5.289,-30.76 15.058,-44.082l2.93,-3.984l-1.406,-4.746c-2.317,-7.879 -5.158,-20.643 -5.723,-32.168c-0.47,-9.587 1.799,-15.646 4.102,-19.707Zm-55.117,128.906c7.067,0.09 15.167,0.472 23.281,0.879c0.775,3.118 1.659,6.185 2.734,9.179c-33.073,0.698 -57.816,4.024 -73.066,6.875c-0.645,-5.003 -1.159,-10.048 -1.445,-15.156c11.27,-1.069 27.158,-2.05 48.496,-1.777Zm322.304,0.156c21.323,-0.271 37.205,0.711 48.477,1.777c-0.287,5.035 -0.792,10.009 -1.426,14.942c-15.795,-2.898 -41.206,-6.223 -75.137,-6.758c1.053,-2.935 1.93,-5.95 2.696,-9.004c8.951,-0.48 17.684,-0.859 25.39,-0.957Zm-292.031,19.824c5.967,11.958 14.494,22.635 25.762,31.348c15.405,11.912 35.433,20.235 59.883,24.687c-3.199,3.287 -6.108,6.896 -8.692,10.704l-0.605,-0.528c0.055,-0.063 -4.972,2.453 -12.481,3.125c-7.509,0.673 -16.772,0.469 -24.98,0.469c-12.25,0 -17.646,-5.788 -26.27,-16.328c-4.775,-6.436 -10.597,-11.649 -16.25,-15.606c-5.788,-4.051 -10.725,-6.911 -16.836,-7.929l-0.82,-0.137l-0.84,0c-4.666,0 -9.182,0.338 -13.398,5.156c-2.108,2.409 -3.561,6.87 -2.617,10.645c0.943,3.775 3.332,6.095 5.468,7.519c13.668,9.112 16.083,27.145 24.649,43.184c7.999,15.939 25.263,23.496 42.91,23.496l25.996,0l0,48.027c-70.322,-24.822 -123.353,-85.981 -136.68,-160.996c15.309,-2.883 40.945,-6.35 75.801,-6.836Zm259.707,0.078c35.627,0.305 61.982,3.768 77.871,6.7c-13.309,75.042 -66.358,136.226 -136.699,161.054l0,-52.031c0,-15.846 -5.204,-33.319 -14.258,-47.891c-2.749,-4.424 -5.983,-8.608 -9.59,-12.363c23.153,-4.574 42.172,-12.754 56.973,-24.199c11.243,-8.694 19.751,-19.339 25.703,-31.27Zm-141.836,60.723l28.008,0c8.128,0 16.804,6.478 23.75,17.656c6.946,11.179 11.25,26.19 11.25,37.344l0,57.988c-16.026,3.908 -32.762,6.016 -50,6.016c-17.238,0 -33.974,-2.108 -50,-6.016l0,-57.988c0,-10.907 4.678,-25.883 12.09,-37.109c7.411,-11.227 16.774,-17.891 24.902,-17.891Zm-113.906,11.816c8.658,8.981 19.139,17.188 34.922,17.188c7.791,0 17.517,0.281 26.758,-0.547c0.032,-0.003 0.064,-0.016 0.097,-0.019c-1.217,3.5 -2.126,7.021 -2.89,10.566l-27.969,0c-12.333,0 -21.046,-4.456 -25.059,-12.48l-0.078,-0.137l-0.058,-0.117c-1.644,-3.054 -3.803,-9.16 -5.723,-14.453Z" style="fill-rule:nonzero;"/><clipPath id="_clip1"><rect x="158.009" y="164.593" width="199.981" height="188.814"/></clipPath><g clip-path="url(#_clip1)"><rect id="Artboard11" serif:id="Artboard1" x="158.009" y="164.593" width="199.981" height="188.814" style="fill:none;"/><g><path d="M343.028,252.124c-0.078,-0.115 -0.162,-0.228 -0.258,-0.334l-0.266,-0.289c-0.627,-0.735 -1.281,-1.448 -1.958,-2.138l-35.542,-38.799c-0.074,-0.094 -0.155,-0.184 -0.243,-0.269c-3.539,-3.438 -8.116,-5.45 -13.001,-5.752c-2.032,-3.626 -5.898,-5.956 -10.153,-5.956c-6.418,0 -11.64,5.221 -11.64,11.639l0,26.789l-24.017,0l0,-9.053l0,-2.956l0,-14.78c0,-6.418 -5.221,-11.639 -11.639,-11.639c-4.255,0 -8.122,2.33 -10.154,5.956c-4.886,0.302 -9.462,2.314 -13.001,5.752c-0.088,0.085 -0.169,0.174 -0.242,0.267l-35.543,38.801c-0.677,0.69 -1.331,1.402 -1.958,2.138l-0.266,0.289c-0.096,0.106 -0.18,0.219 -0.258,0.334c-5.832,7.11 -9.337,16.198 -9.337,26.09c0,22.717 18.482,41.199 41.199,41.199c22.717,0 41.199,-18.482 41.199,-41.199c0,-1.056 -0.04,-2.104 -0.119,-3.141l24.255,0c-0.079,1.037 -0.119,2.085 -0.119,3.141c0,22.717 18.482,41.199 41.199,41.199c22.717,0 41.2,-18.482 41.2,-41.199c0,-9.892 -3.506,-18.98 -9.338,-26.09Zm-67.518,-41.898c0,-3.362 2.735,-6.097 6.097,-6.097c1.273,0 2.479,0.399 3.478,1.093c-3.716,1.014 -7.015,3.048 -9.575,5.783l0,-0.779Zm-35.102,0l0,0.78c-2.561,-2.736 -5.859,-4.77 -9.576,-5.783c1,-0.694 2.206,-1.093 3.479,-1.093c3.361,-0.001 6.097,2.734 6.097,6.096Zm-35.657,103.645c-19.661,0 -35.657,-15.996 -35.657,-35.657c0,-8.758 3.176,-16.787 8.433,-23l1.932,-2.108c6.464,-6.511 15.415,-10.549 25.292,-10.549c19.661,0 35.657,15.996 35.657,35.657c0,19.661 -15.996,35.657 -35.657,35.657Zm0,-76.856c-4.267,0 -8.384,0.652 -12.258,1.862l22.642,-24.717c0.005,-0.005 0.009,-0.01 0.014,-0.015c2.791,-2.648 6.439,-4.104 10.294,-4.104c8.251,0 14.965,6.713 14.965,14.965l0,12.009l-6.097,0c-0.064,0 -0.127,0.002 -0.189,0.006c-0.806,-0.077 -1.636,0.197 -2.245,0.82c-1.071,1.093 -1.053,2.848 0.041,3.919c4.224,4.136 6.976,9.353 8.017,15.038c-7.243,-11.854 -20.305,-19.783 -35.184,-19.783Zm65.216,32.516l-24.017,0l0,-7.575c0,-7.053 -2.136,-13.759 -6.106,-19.399l36.229,0c-3.97,5.64 -6.106,12.346 -6.106,19.399l0,7.575Zm14.033,-27.771c0.809,-0.793 1.055,-1.999 0.619,-3.045c-0.435,-1.047 -1.462,-1.716 -2.596,-1.706l-0.435,0.006l-6.078,0l0,-9.053l0,-2.956c0,-8.252 6.713,-14.965 14.965,-14.965c3.854,0 7.503,1.456 10.294,4.104c0.004,0.005 0.009,0.009 0.013,0.014l22.642,24.717c-3.873,-1.209 -7.991,-1.861 -12.258,-1.861c-14.879,0 -27.941,7.929 -35.183,19.784c1.041,-5.686 3.793,-10.903 8.017,-15.039Zm27.166,72.111c-19.661,0 -35.656,-15.996 -35.656,-35.657c0,-19.661 15.995,-35.657 35.656,-35.657c9.878,0 18.829,4.038 25.292,10.548l1.932,2.109c5.258,6.213 8.433,14.242 8.433,23c0,19.661 -15.996,35.657 -35.657,35.657Z" style="fill-rule:nonzero;stroke:#000;stroke-width:3.51px;stroke-linecap:butt;stroke-miterlimit:1.41421;"/><path d="M204.751,248.839c-16.197,0 -29.375,13.178 -29.375,29.375c0,16.197 13.178,29.375 29.375,29.375c16.197,0 29.375,-13.178 29.375,-29.375c0,-16.197 -13.178,-29.375 -29.375,-29.375Zm0,53.208c-13.141,0 -23.833,-10.692 -23.833,-23.833c0,-13.141 10.692,-23.833 23.833,-23.833c13.141,0 23.833,10.692 23.833,23.833c0,13.141 -10.692,23.833 -23.833,23.833Z" style="fill-rule:nonzero;stroke:#000;stroke-width:3.51px;stroke-linecap:butt;stroke-miterlimit:1.41421;"/><path d="M311.166,248.839c-16.197,0 -29.375,13.178 -29.375,29.375c0,16.197 13.178,29.375 29.375,29.375c16.198,0 29.376,-13.178 29.376,-29.375c0,-16.197 -13.178,-29.375 -29.376,-29.375Zm0,53.208c-13.141,0 -23.832,-10.692 -23.832,-23.833c0,-13.141 10.691,-23.833 23.832,-23.833c13.142,0 23.833,10.692 23.833,23.833c0,13.141 -10.691,23.833 -23.833,23.833Z" style="fill-rule:nonzero;stroke:#000;stroke-width:3.51px;stroke-linecap:butt;stroke-miterlimit:1.41421;"/><path d="M311.166,260.663c-1.53,0 -2.771,1.241 -2.771,2.771c0,1.53 1.241,2.771 2.771,2.771c6.622,0 12.009,5.388 12.009,12.009c0,1.53 1.241,2.771 2.771,2.771c1.531,0 2.772,-1.241 2.772,-2.771c0,-9.678 -7.874,-17.551 -17.552,-17.551Z" style="fill-rule:nonzero;stroke:#000;stroke-width:3.51px;stroke-linecap:butt;stroke-miterlimit:1.41421;"/><path d="M204.751,260.663c-1.531,0 -2.771,1.241 -2.771,2.771c0,1.53 1.24,2.771 2.771,2.771c6.621,0 12.009,5.388 12.009,12.009c0,1.53 1.24,2.771 2.771,2.771c1.53,0 2.771,-1.241 2.771,-2.771c0,-9.678 -7.874,-17.551 -17.551,-17.551Z" style="fill-rule:nonzero;stroke:#000;stroke-width:3.51px;stroke-linecap:butt;stroke-miterlimit:1.41421;"/></g></g></svg>