<?xml version="1.0" standalone="no"?>
<!DOCTYPE svg PUBLIC "-//W3C//DTD SVG 20010904//EN"
 "http://www.w3.org/TR/2001/REC-SVG-20010904/DTD/svg10.dtd">
<svg version="1.0" xmlns="http://www.w3.org/2000/svg"
 width="516.000000pt" height="516.000000pt" viewBox="0 0 516.000000 516.000000"
 preserveAspectRatio="xMidYMid meet">
<metadata>
Created by potrace 1.11, written by Peter Selinger 2001-2013
</metadata>
<g transform="translate(0.000000,516.000000) scale(0.100000,-0.100000)"
fill="#000000" stroke="none">
<path d="M2497 5104 c-1 -1 -47 -4 -102 -8 -316 -20 -632 -106 -930 -252 -662
-326 -1156 -936 -1335 -1652 -24 -95 -37 -161 -45 -229 -4 -26 -8 -59 -11 -73
-17 -100 -22 -377 -10 -515 32 -369 136 -709 315 -1030 158 -283 407 -572 661
-765 458 -348 977 -523 1545 -523 107 0 280 10 320 18 11 3 38 7 60 10 627 88
1242 457 1634 980 457 609 614 1385 431 2126 -60 240 -183 537 -291 697 -16
24 -29 45 -29 47 0 6 -90 135 -129 185 -105 133 -231 266 -342 360 -35 30 -66
57 -69 60 -72 72 -387 270 -526 331 -237 103 -505 184 -677 204 -25 3 -55 8
-68 10 -52 10 -393 26 -402 19z m283 -59 c152 -10 256 -29 476 -84 98 -25 340
-118 429 -166 45 -25 188 -105 213 -120 10 -6 44 -29 77 -51 349 -240 664
-606 834 -969 62 -133 76 -168 121 -304 41 -122 57 -186 84 -323 2 -7 6 -35
10 -63 4 -27 10 -61 12 -75 24 -139 21 -485 -5 -655 -18 -116 -23 -141 -41
-221 -240 -1037 -1160 -1826 -2215 -1900 -205 -15 -457 -4 -610 26 -27 6 -61
12 -75 15 -68 13 -94 19 -202 51 -808 235 -1445 871 -1682 1679 -49 167 -72
289 -92 475 -6 65 -7 379 0 435 2 17 7 59 11 95 4 36 9 74 12 85 2 11 5 29 7
40 32 212 129 494 248 718 195 368 488 689 838 920 252 166 620 313 905 361
132 22 174 27 280 33 66 3 121 7 123 8 3 3 143 -3 242 -10z"/>
<path d="M2429 4876 c-2 -2 -40 -6 -84 -10 -44 -3 -91 -8 -105 -11 -14 -2 -36
-7 -50 -10 -14 -3 -43 -8 -65 -11 -71 -10 -281 -72 -387 -115 -801 -319 -1353
-1046 -1445 -1904 -15 -137 -7 -509 12 -568 2 -7 6 -30 9 -52 35 -257 177
-623 336 -865 218 -330 513 -600 850 -778 248 -131 458 -200 750 -248 116 -19
454 -25 575 -11 159 19 176 23 331 62 920 235 1606 1027 1711 1975 16 137 8
490 -13 605 -43 243 -108 448 -204 643 -229 470 -588 832 -1050 1060 -158 78
-186 90 -300 126 -47 15 -98 31 -115 36 -38 12 -210 47 -267 55 -24 3 -59 8
-78 11 -45 7 -405 16 -411 10z m401 -209 c14 -4 43 -9 65 -11 314 -41 679
-196 955 -406 262 -199 466 -447 613 -745 130 -263 198 -524 213 -823 l7 -123
-109 7 c-60 5 -222 7 -360 7 l-251 -2 4 137 c3 119 0 149 -20 227 -27 104 -44
145 -95 235 -20 36 -35 70 -33 75 27 85 53 248 55 345 4 166 -26 266 -104 350
l-39 42 -93 -6 c-166 -10 -313 -61 -454 -155 l-61 -41 -44 15 c-297 106 -654
109 -973 9 l-79 -25 -68 46 c-79 53 -170 96 -249 119 -75 21 -102 25 -202 32
l-87 6 -37 -38 c-43 -46 -80 -115 -90 -170 -3 -21 -8 -48 -11 -59 -15 -74 2
-265 34 -395 17 -68 15 -98 -12 -140 -37 -59 -89 -182 -111 -265 -13 -51 -18
-106 -19 -206 l0 -136 -245 1 c-135 0 -292 -2 -349 -6 l-103 -7 5 112 c28 568
268 1076 689 1462 254 232 614 423 928 489 121 26 163 33 270 45 73 9 422 7
460 -2z m-1235 -913 c112 -18 242 -77 341 -154 43 -34 65 -45 76 -39 62 35
247 86 372 104 92 13 312 13 401 1 78 -11 222 -51 303 -84 69 -29 74 -29 90
-13 87 88 255 167 402 190 l52 8 19 -44 c36 -85 28 -235 -25 -428 l-24 -90 41
-65 c103 -164 128 -251 123 -435 -5 -197 -50 -333 -153 -460 -46 -56 -173
-168 -182 -160 -2 2 8 18 23 36 116 137 111 391 -10 530 -36 40 -103 114 -273
298 -111 121 -145 151 -189 167 -26 10 -56 25 -67 34 -61 52 -135 54 -191 4
-34 -31 -42 -73 -43 -208 0 -71 -5 -132 -10 -135 -11 -7 -181 -4 -189 3 -3 3
-6 68 -7 143 -1 154 -9 181 -60 213 -53 33 -118 25 -170 -20 -11 -9 -41 -24
-67 -34 -42 -16 -103 -70 -199 -177 -37 -41 -168 -185 -227 -247 -29 -32 -69
-90 -89 -131 -34 -67 -37 -82 -40 -167 -3 -128 33 -228 111 -307 36 -36 37
-38 9 -24 -45 24 -144 101 -181 141 -132 145 -193 317 -187 526 4 148 51 289
138 418 l36 53 -15 59 c-17 68 -20 79 -39 175 -29 146 -3 345 43 331 9 -3 35
-8 57 -12z m719 -729 c18 -9 40 -30 51 -48 28 -47 31 -188 4 -171 -17 10 -58
-5 -69 -26 -8 -15 -7 -26 6 -46 l17 -26 -37 26 c-64 43 -144 68 -223 70 -40 0
-73 3 -73 6 0 3 17 24 38 46 20 23 60 66 88 97 77 86 129 105 198 72z m640 5
c28 -10 50 -32 199 -196 l27 -30 -62 0 c-35 0 -77 -3 -95 -6 -40 -8 -141 -53
-167 -76 -20 -17 -20 -17 -3 10 27 43 1 78 -58 78 -25 0 -26 1 -24 60 1 33 10
77 19 98 27 59 100 87 164 62z m-780 -341 c129 -48 218 -185 211 -326 -13
-284 -343 -421 -566 -235 -70 58 -114 171 -107 273 17 230 243 371 462 288z
m542 1 c-13 -26 -37 -113 -35 -127 1 -5 1 -24 0 -44 l-1 -36 -101 1 -101 1 -3
70 c-2 40 -12 89 -23 115 l-20 46 148 0 148 -1 -12 -25z m535 -6 c75 -34 147
-110 177 -188 30 -79 26 -191 -11 -262 -35 -68 -91 -126 -158 -160 -47 -25
-65 -28 -144 -29 -108 0 -158 19 -233 89 -138 129 -142 340 -9 479 42 44 126
91 177 99 59 9 144 -3 201 -28z m-2104 -213 l51 -1 16 -47 c9 -26 16 -47 16
-47 0 -1 -21 -1 -48 -2 -169 -2 -357 -17 -541 -44 -74 -11 -137 -18 -139 -15
-2 2 -6 19 -8 37 -2 18 -5 50 -8 71 -2 20 -1 37 3 37 22 0 206 13 208 14 2 2
367 0 450 -3z m3427 -6 c50 -4 94 -8 97 -11 7 -4 4 -44 -7 -112 -5 -35 0 -34
-94 -17 -14 2 -47 7 -75 10 -27 3 -68 8 -90 11 -71 9 -118 13 -245 19 -157 8
-244 13 -247 14 -1 1 5 21 13 46 l16 44 101 3 c156 5 430 1 531 -7z m-1899
-77 c3 -2 7 -24 10 -49 9 -71 25 -120 56 -175 52 -92 163 -177 259 -200 19 -4
38 -9 43 -10 4 -1 22 -2 40 -4 l32 -2 -30 -9 c-16 -5 -43 -11 -60 -14 -16 -3
-55 -10 -85 -16 -98 -18 -192 -24 -370 -24 -189 0 -268 6 -400 30 -146 26
-156 31 -75 38 140 13 279 112 340 242 25 53 43 126 41 167 -1 17 5 24 24 28
31 6 168 5 175 -2z m-1355 -191 c28 -43 69 -99 93 -124 140 -152 363 -272 616
-332 46 -11 86 -22 88 -25 9 -9 -70 -95 -96 -105 -53 -22 -130 -29 -281 -28
-145 2 -158 4 -199 27 -25 14 -81 66 -125 115 -96 107 -169 170 -251 216 -51
29 -69 34 -125 34 -73 0 -111 -19 -136 -66 -31 -62 -12 -125 54 -174 51 -38
101 -113 142 -212 97 -241 162 -331 276 -387 83 -41 160 -53 339 -55 87 -1
161 -3 162 -5 2 -2 2 -109 1 -239 l-3 -235 -80 32 c-623 252 -1088 786 -1250
1438 -18 73 -32 134 -31 135 3 3 180 31 241 38 101 12 132 14 250 21 66 3 121
7 122 8 1 1 34 1 72 1 l71 0 50 -78z m2849 68 c70 -4 140 -9 156 -11 17 -2 55
-6 85 -9 30 -3 93 -13 140 -20 47 -8 88 -15 91 -15 4 0 3 -17 -1 -37 -5 -21
-11 -49 -13 -63 -22 -117 -93 -311 -169 -465 -227 -458 -612 -814 -1093 -1011
-44 -18 -81 -32 -82 -30 -1 1 -3 137 -4 302 -1 241 -4 315 -18 379 -30 141
-98 291 -171 379 -22 27 -37 53 -33 57 4 4 46 17 92 29 316 80 561 250 693
481 l27 46 87 -3 c49 -1 144 -5 213 -9z m-1366 -615 c56 -27 113 -80 154 -143
33 -52 87 -172 97 -217 3 -14 10 -45 15 -70 5 -25 10 -188 11 -362 l1 -317
-28 -7 c-16 -3 -44 -10 -63 -14 -19 -5 -62 -12 -95 -16 -33 -3 -69 -9 -80 -11
-11 -3 -105 -6 -210 -8 -189 -2 -349 13 -478 45 l-48 13 2 318 c1 332 5 366
52 495 44 118 144 244 232 288 48 24 58 25 223 26 153 0 177 -2 215 -20z
m-1383 -191 c91 -65 162 -81 355 -78 83 1 149 -1 149 -5 -1 -3 -7 -27 -13 -52
l-12 -46 -187 4 c-274 7 -308 26 -381 218 l-20 53 37 -34 c20 -20 53 -46 72
-60z"/>
<path d="M1921 2660 c-229 -109 -249 -406 -36 -547 139 -91 351 -37 433 112
46 84 52 192 15 276 -70 158 -259 231 -412 159z m237 -94 c77 -48 117 -128
107 -211 -26 -220 -319 -269 -415 -70 -57 117 4 258 129 301 54 19 132 10 179
-20z"/>
<path d="M2016 2554 c-9 -8 -16 -22 -16 -29 0 -22 29 -45 57 -45 33 0 93 -60
93 -92 0 -33 30 -59 58 -52 47 13 39 100 -15 163 -54 64 -141 91 -177 55z"/>
<path d="M3002 2668 c-67 -25 -142 -96 -172 -163 -23 -51 -32 -151 -18 -206
22 -90 99 -177 186 -209 151 -57 314 5 390 147 28 54 31 66 29 143 -2 98 -25
156 -85 216 -87 86 -216 114 -330 72z m207 -93 c130 -67 162 -245 63 -348 -74
-78 -206 -88 -295 -23 -67 49 -100 158 -74 244 15 47 91 124 137 139 46 14
131 8 169 -12z"/>
<path d="M3081 2557 c-16 -20 -11 -57 9 -68 8 -4 28 -11 43 -14 38 -8 77 -48
77 -80 0 -35 35 -68 63 -59 30 9 29 8 29 54 -1 52 -41 121 -86 149 -46 29
-118 38 -135 18z"/>
</g>
</svg>
